<?xml version="1.0" encoding="utf-8"?>
<!-- Generator: Adobe Illustrator 19.0.0, SVG Export Plug-In . SVG Version: 6.00 Build 0)  -->
<svg version="1.1" id="Layer_1" xmlns="http://www.w3.org/2000/svg" xmlns:xlink="http://www.w3.org/1999/xlink" x="0px" y="0px"
	 viewBox="-235 236.2 28.8 28.8" style="enable-background:new -235 236.2 28.8 28.8;" xml:space="preserve">
<style type="text/css">
	.st0{fill:#FFFFFF;}
</style>
<g>
	<path class="st0" d="M-214.1,236.1h-12.9c-4.4,0-8,3.6-8,8V257c0,4.4,3.6,8,8,8h12.9c4.4,0,8-3.6,8-8v-13
		C-206.3,239.6-209.8,236.1-214.1,236.1z M-208.8,256.9c0,3-2.4,5.4-5.4,5.4h-12.9c-3,0-5.4-2.4-5.4-5.4V244c0-3,2.4-5.4,5.4-5.4
		h12.9c3,0,5.4,2.4,5.4,5.4V256.9L-208.8,256.9z"/>
	<path class="st0" d="M-220.6,243c-4.1,0-7.4,3.3-7.4,7.4c0,4.1,3.3,7.4,7.4,7.4c4.1,0,7.4-3.3,7.4-7.4
		C-213.1,246.4-216.6,243-220.6,243z M-220.6,255.3c-2.7,0-4.9-2.2-4.9-4.9s2.2-4.9,4.9-4.9c2.7,0,4.9,2.2,4.9,4.9
		C-215.8,253.2-217.9,255.3-220.6,255.3z"/>
	<path class="st0" d="M-212.8,240.9c-0.5,0-1,0.2-1.3,0.5s-0.6,0.8-0.6,1.3s0.2,1,0.6,1.3c0.3,0.3,0.8,0.5,1.3,0.5s1-0.2,1.3-0.5
		s0.5-0.8,0.5-1.3s-0.2-1-0.5-1.3C-211.9,241.1-212.3,240.9-212.8,240.9z"/>
</g>
</svg>
