<?xml version="1.0" encoding="utf-8"?>
<!-- Generator: Adobe Illustrator 19.0.0, SVG Export Plug-In . SVG Version: 6.00 Build 0)  -->
<svg version="1.1" id="Capa_1" xmlns="http://www.w3.org/2000/svg" xmlns:xlink="http://www.w3.org/1999/xlink" x="0px" y="0px"
	 viewBox="-233.9 215.9 70 70" style="enable-background:new -233.9 215.9 70 70;" xml:space="preserve">
<style type="text/css">
	.st0{fill:#FFFFFF;}
</style>
<g>
	<g>
		<path class="st0" d="M-164,271.2c0.1,1.1-0.1,2.1-1,2.9l-9.8,9.8c-0.4,0.6-1,1-1.7,1.3c-0.7,0.4-1.4,0.6-2.1,0.7c0,0-0.1,0-0.4,0
			c-0.3,0-0.6,0-1,0c-1,0-2.5-0.1-4.6-0.4c-2.1-0.3-4.6-1.1-7.7-2.4c-3.1-1.3-6.5-3.2-10.4-5.8s-8-6-12.4-10.4
			c-3.5-3.4-6.3-6.7-8.6-9.8c-2.2-3.1-4.1-6-5.5-8.7c-1.4-2.7-2.4-5.1-3.1-7.2c-0.7-2.1-1.1-4.1-1.4-5.6c-0.3-1.5-0.4-2.8-0.3-3.6
			s0.1-1.4,0.1-1.5c0.1-0.7,0.3-1.4,0.7-2.1c0.4-0.7,0.7-1.3,1.3-1.7l9.8-9.8c0.7-0.7,1.5-1,2.4-1c0.7,0,1.3,0.1,1.7,0.6
			c0.6,0.4,0.8,0.8,1.3,1.4l8,15c0.4,0.8,0.6,1.7,0.4,2.7c-0.1,1-0.6,1.7-1.3,2.4l-3.6,3.6c-0.1,0.1-0.1,0.3-0.3,0.4
			c-0.1,0.3-0.1,0.4-0.1,0.6c0.1,1,0.7,2.2,1.4,3.5c0.6,1.1,1.5,2.7,2.8,4.3c1.3,1.7,2.9,3.6,5.3,5.9c2.2,2.2,4.2,4.1,5.9,5.3
			c1.7,1.3,3.2,2.2,4.4,2.8c1.1,0.6,2.1,1,2.7,1.1l1,0.1c0.1,0,0.3,0,0.4-0.1c0.3-0.1,0.4-0.1,0.4-0.3l4.2-4.3
			c0.8-0.8,2-1.1,3.1-1.1c0.8,0,1.5,0.1,2,0.4h0.1l14.3,8.4C-164.8,269.4-164.1,270.2-164,271.2z"/>
	</g>
</g>
</svg>
