<?xml version="1.0" encoding="utf-8"?>
<!-- Generator: Adobe Illustrator 19.0.0, SVG Export Plug-In . SVG Version: 6.00 Build 0)  -->
<svg version="1.1" id="Layer_1" xmlns="http://www.w3.org/2000/svg" xmlns:xlink="http://www.w3.org/1999/xlink" x="0px" y="0px"
	 viewBox="-93.9 237.1 28.8 28.8" style="enable-background:new -93.9 237.1 28.8 28.8;" xml:space="preserve">
<g>
	<path d="M-73,237.1h-12.9c-4.4,0-8,3.6-8,8v12.9c0,4.4,3.6,8,8,8H-73c4.4,0,8-3.6,8-8V245C-65.1,240.6-68.6,237.1-73,237.1z
		 M-67.6,257.9c0,3-2.4,5.4-5.4,5.4h-12.9c-3,0-5.4-2.4-5.4-5.4V245c0-3,2.4-5.4,5.4-5.4H-73c3,0,5.4,2.4,5.4,5.4L-67.6,257.9
		L-67.6,257.9z"/>
	<path d="M-79.5,244c-4.1,0-7.4,3.3-7.4,7.4c0,4.1,3.3,7.4,7.4,7.4s7.4-3.3,7.4-7.4C-72,247.4-75.4,244-79.5,244z M-79.5,256.3
		c-2.7,0-4.9-2.2-4.9-4.9c0-2.7,2.2-4.9,4.9-4.9s4.9,2.2,4.9,4.9C-74.6,254.2-76.8,256.3-79.5,256.3z"/>
	<path d="M-71.7,241.9c-0.5,0-1,0.2-1.3,0.5c-0.3,0.3-0.6,0.8-0.6,1.3c0,0.5,0.2,1,0.6,1.3c0.3,0.3,0.8,0.5,1.3,0.5
		c0.5,0,1-0.2,1.3-0.5c0.3-0.3,0.5-0.8,0.5-1.3c0-0.5-0.2-1-0.5-1.3C-70.8,242.1-71.2,241.9-71.7,241.9z"/>
</g>
</svg>
